<?xml version="1.0" encoding="UTF-8"?>
<svg xmlns="http://www.w3.org/2000/svg" xmlns:xlink="http://www.w3.org/1999/xlink" width="789.12pt" height="168.64pt" viewBox="0 0 789.12 168.64" version="1.1">
<defs>
<clipPath id="clip1">
  <path d="M 0 35 L 82 35 L 82 168.640625 L 0 168.640625 Z M 0 35 "/>
</clipPath>
<clipPath id="clip2">
  <path d="M 710 34 L 789.121094 34 L 789.121094 137 L 710 137 Z M 710 34 "/>
</clipPath>
</defs>
<g id="surface1">
<g clip-path="url(#clip1)" clip-rule="nonzero">
<path style=" stroke:none;fill-rule:nonzero;fill:rgb(35.299683%,28.199768%,10.598755%);fill-opacity:1;" d="M 41.273438 38.851563 C 16.425781 38.851563 3.730469 58.832031 3.730469 82.167969 C 3.730469 105.886719 16.425781 124.402344 39.757813 124.402344 C 64.429688 124.402344 77.890625 105.3125 77.890625 82.167969 C 78.066406 60.117188 65.382813 38.851563 41.273438 38.851563 M 78.066406 101.234375 L 77.695313 101.234375 C 73.78125 118.226563 56.394531 128.128906 39.972656 128.128906 C 13.273438 128.128906 0 106.820313 0 82.167969 C 0 56.398438 14.21875 35.109375 41.273438 35.109375 C 59.59375 35.109375 73.972656 47.253906 77.695313 62.9375 L 78.066406 62.9375 L 78.066406 37.347656 L 81.808594 37.347656 L 81.808594 130.171875 C 81.808594 156.3125 66.859375 168.640625 41.820313 168.640625 C 22.410156 168.640625 5.773438 159.867188 5.210938 138.382813 L 8.96875 138.382813 C 9.714844 157.433594 24.28125 164.898438 41.640625 164.898438 C 64.808594 164.898438 78.066406 153.890625 78.066406 130.171875 L 78.066406 101.234375 "/>
</g>
<path style=" stroke:none;fill-rule:nonzero;fill:rgb(35.299683%,28.199768%,10.598755%);fill-opacity:1;" d="M 135.601563 131.84375 C 161.160156 131.84375 174.996094 109.625 174.996094 85.347656 C 174.996094 61.441406 161.160156 38.851563 135.601563 38.851563 C 109.625 38.851563 96.003906 61.441406 96.003906 85.347656 C 96.003906 109.625 109.625 131.84375 135.601563 131.84375 M 135.601563 35.109375 C 163.617188 35.109375 178.726563 59.21875 178.726563 85.347656 C 178.726563 111.683594 163.617188 135.589844 135.410156 135.589844 C 107.398438 135.589844 92.246094 111.683594 92.246094 85.347656 C 92.246094 59.21875 107.398438 35.109375 135.601563 35.109375 "/>
<path style=" stroke:none;fill-rule:nonzero;fill:rgb(35.299683%,28.199768%,10.598755%);fill-opacity:1;" d="M 227.863281 131.84375 C 253.457031 131.84375 267.261719 109.625 267.261719 85.347656 C 267.261719 61.441406 253.457031 38.851563 227.863281 38.851563 C 201.894531 38.851563 188.253906 61.441406 188.253906 85.347656 C 188.253906 109.625 201.894531 131.84375 227.863281 131.84375 M 227.863281 35.109375 C 255.859375 35.109375 270.992188 59.21875 270.992188 85.347656 C 270.992188 111.683594 255.859375 135.589844 227.675781 135.589844 C 199.648438 135.589844 184.523438 111.683594 184.523438 85.347656 C 184.523438 59.21875 199.648438 35.109375 227.863281 35.109375 "/>
<path style=" stroke:none;fill-rule:nonzero;fill:rgb(35.299683%,28.199768%,10.598755%);fill-opacity:1;" d="M 317.6875 38.851563 C 291.351563 38.851563 280.519531 63.308594 280.519531 85.539063 C 280.519531 110.179688 292.847656 131.84375 317.6875 131.84375 C 342.34375 131.84375 356.527344 110.390625 356.527344 85.539063 C 356.527344 55.84375 341.027344 38.851563 317.6875 38.851563 M 356.527344 -0.00390625 L 360.265625 -0.00390625 L 360.265625 133.351563 L 356.527344 133.351563 L 356.527344 106.457031 L 356.144531 106.457031 C 351.296875 123.265625 337.3125 135.589844 317.6875 135.589844 C 292.273438 135.589844 276.773438 114.472656 276.773438 85.539063 C 276.773438 58.644531 291.167969 35.109375 317.6875 35.109375 C 338.054688 35.109375 351.675781 46.882813 356.144531 64.238281 L 356.527344 64.238281 L 356.527344 -0.00390625 "/>
<path style=" stroke:none;fill-rule:nonzero;fill:rgb(35.299683%,28.199768%,10.598755%);fill-opacity:1;" d="M 378.375 36.984375 L 389.203125 36.984375 L 389.203125 59.574219 L 389.589844 59.574219 C 395.570313 44.054688 408.621094 34.910156 426.007813 35.683594 L 426.007813 47.4375 C 404.695313 46.304688 390.148438 61.992188 390.148438 81.976563 L 390.148438 133.34375 L 378.375 133.34375 L 378.375 36.984375 "/>
<path style=" stroke:none;fill-rule:nonzero;fill:rgb(35.299683%,28.199768%,10.598755%);fill-opacity:1;" d="M 498.453125 78.441406 C 497.914063 60.699219 486.878906 44.050781 467.820313 44.050781 C 448.59375 44.050781 437.964844 60.882813 436.097656 78.441406 Z M 436.097656 88.335938 C 436.265625 105.535156 445.234375 126.230469 467.820313 126.230469 C 485.019531 126.230469 494.347656 116.164063 498.074219 101.605469 L 509.859375 101.605469 C 504.816406 123.460938 492.105469 136.144531 467.820313 136.144531 C 437.226563 136.144531 424.320313 112.601563 424.320313 85.171875 C 424.320313 59.761719 437.226563 34.179688 467.820313 34.179688 C 498.835938 34.179688 511.191406 61.269531 510.230469 88.335938 L 436.097656 88.335938 "/>
<path style=" stroke:none;fill-rule:nonzero;fill:rgb(35.299683%,28.199768%,10.598755%);fill-opacity:1;" d="M 583.101563 80.667969 L 582.730469 80.667969 C 581.242188 83.472656 575.988281 84.421875 572.824219 84.976563 C 552.820313 88.515625 527.980469 88.335938 527.980469 107.195313 C 527.980469 118.96875 538.441406 126.230469 549.464844 126.230469 C 567.402344 126.230469 583.296875 114.851563 583.101563 95.992188 Z M 520.3125 66.484375 C 521.425781 43.894531 537.308594 34.171875 559.355469 34.171875 C 576.382813 34.171875 594.886719 39.410156 594.886719 65.167969 L 594.886719 116.355469 C 594.886719 120.84375 597.140625 123.460938 601.8125 123.460938 C 603.117188 123.460938 604.578125 123.070313 605.539063 122.703125 L 605.539063 132.59375 C 602.914063 133.160156 601.050781 133.351563 597.855469 133.351563 C 585.917969 133.351563 584.019531 126.621094 584.019531 116.527344 L 583.691406 116.527344 C 575.449219 129.035156 567.03125 136.144531 548.503906 136.144531 C 530.789063 136.144531 516.207031 127.390625 516.207031 107.9375 C 516.207031 80.863281 542.535156 79.941406 567.953125 76.949219 C 577.6875 75.804688 583.101563 74.503906 583.101563 63.867188 C 583.101563 47.988281 571.707031 44.050781 557.851563 44.050781 C 543.285156 44.050781 532.472656 50.792969 532.050781 66.484375 L 520.3125 66.484375 "/>
<path style=" stroke:none;fill-rule:nonzero;fill:rgb(35.299683%,28.199768%,10.598755%);fill-opacity:1;" d="M 652.992188 126.230469 C 678.003906 126.230469 686.800781 105.136719 686.800781 85.171875 C 686.800781 65.164063 678.003906 44.050781 652.992188 44.050781 C 630.578125 44.050781 621.425781 65.164063 621.425781 85.171875 C 621.425781 105.136719 630.578125 126.230469 652.992188 126.230469 M 698.550781 133.351563 L 687.734375 133.351563 L 687.734375 115.058594 L 687.355469 115.058594 C 682.308594 127.5625 666.992188 136.144531 652.992188 136.144531 C 623.636719 136.144531 609.652344 112.441406 609.652344 85.171875 C 609.652344 57.894531 623.636719 34.179688 652.992188 34.179688 C 667.359375 34.179688 681.359375 41.460938 686.394531 55.277344 L 686.800781 55.277344 L 686.800781 -0.00390625 L 698.550781 -0.00390625 L 698.550781 133.351563 "/>
<g clip-path="url(#clip2)" clip-rule="nonzero">
<path style=" stroke:none;fill-rule:nonzero;fill:rgb(35.299683%,28.199768%,10.598755%);fill-opacity:1;" d="M 774.015625 65.167969 C 773.433594 50.597656 762.25 44.054688 748.792969 44.054688 C 738.320313 44.054688 726.019531 48.171875 726.019531 60.699219 C 726.019531 71.148438 737.953125 74.882813 746 76.953125 L 761.6875 80.480469 C 775.117188 82.542969 789.117188 90.382813 789.117188 107.1875 C 789.117188 128.128906 768.429688 136.136719 750.464844 136.136719 C 728.050781 136.136719 712.746094 125.683594 710.878906 102.15625 L 722.621094 102.15625 C 723.578125 118.015625 735.347656 126.238281 751.046875 126.238281 C 762.027344 126.238281 777.359375 121.386719 777.359375 107.945313 C 777.359375 96.746094 766.914063 93.015625 756.273438 90.382813 L 741.128906 87.042969 C 725.824219 82.933594 714.222656 77.6875 714.222656 61.269531 C 714.222656 41.660156 733.464844 34.171875 750.464844 34.171875 C 769.691406 34.171875 785.035156 44.277344 785.761719 65.167969 L 774.015625 65.167969 "/>
</g>
</g>
</svg>
