<svg xmlns="http://www.w3.org/2000/svg" viewBox="0 0 287.97 256.52"><title>Asset 1</title><g id="Layer_2" data-name="Layer 2"><g id="Layer_1-2" data-name="Layer 1"><path d="M41.78,183.33l-.14-.85-.1-.87-.08-.87,0-.89V179l0-.89.06-.93.1-.9.12-.93.16-.93.17-.93.22-.93.24-1,.25-.95.3-1,.32-.92.35-.95.38-1,.39-.95.42-.93.45-.95.48-.93.49-.93.52-.91.53-.9.55-.91.6-.91.59-.87.61-.89.65-.87.66-.85.69-.83,8.93,7.45-.47.59-.48.62-.47.61-.44.61-.43.63-.42.64-.41.63-.38.63-.37.63-.36.64-.36.65-.31.63-.32.65-.27.63-.28.66-.26.63-.24.63-.21.63-.2.64-.18.63-.16.61-.13.63-.12.62-.1.59-.08.61-.06.6,0,.57,0,.57,0,.58,0,.55,0,.55.1.53-11.56,2Zm10-29.11.57-.69.59-.68.6-.67.61-.65.63-.65.65-.63.65-.64.7-.63.67-.61.71-.59.69-.58.73-.57.73-.57.75-.54.76-.53.77-.51,6.32,9.66-.55.38-.54.37-.55.42-.53.41-.54.42-.53.45-.51.45-.54.48-.49.47-.52.5-.49.49-.49.52-.5.53-.47.53-.48.56-.47.55-8.93-7.45Zm10.81-9.74.81-.54.81-.49L65,143l.83-.45.83-.46.83-.41.85-.4.83-.35.85-.36.85-.31.85-.3.87-.28.85-.25.87-.22.85-.2.86-.18,2,11.56-.61.12-.61.14-.6.16-.61.18-.59.18-.58.19-.59.22-.57.24-.58.23-.57.28-.55.26-.56.29-.55.3-.53.32-.54.33-.53.34-6.32-9.66ZM76,138.8l.74-.12.73-.09.73-.08.73-.08.73,0,.73,0h1.48l.74,0,.73.06.75.06.73.09.75.1.73.14.73.16.75.18.73.2.74.21.73.26.73.26.73.29.73.32.73.34.73.35.71.4.74.41.71.44.71.45.71.5.71.51.71.53.71.58-7.45,8.93-.43-.34-.42-.31-.41-.3-.42-.3-.43-.27-.42-.26-.43-.24-.44-.23-.43-.2-.42-.22-.43-.18-.43-.17-.44-.16-.43-.14-.44-.14-.43-.12-.46-.1-.43-.1-.44-.07-.43-.06-.44-.06-.43,0-.46,0-.43,0h-.87l-.44,0-.43,0-.44,0-.43.06-.43.06-.44.05L76,138.8Zm25.4,10.89,0,12.3-9.47-7.83,3.72-4.47Zm-11.56,0L90,74.35h11.56l-.16,75.34ZM90,74.35l0-1.08,0-1.09.09-1.07L90.29,70l.14-1,.2-1,.2-1,.25-1,.28-1,.3-1L92,63l.38-.95.39-.91.42-.91.45-.89.48-.85,10,5.77-.3.56-.3.55-.25.55-.26.6-.22.59-.22.61-.19.61-.16.64-.16.63-.14.65-.12.67-.07.66-.08.69-.06.67,0,.71,0,.69ZM94.11,58.5l.27-.47.28-.46.3-.43.29-.44.3-.43.32-.44.33-.41.32-.42.33-.39.34-.42.36-.37.35-.4.38-.37.37-.36.38-.35.39-.36.4-.36.39-.33.42-.32.41-.31.42-.32.43-.3.44-.29.45-.28.44-.28.45-.27.48-.24.47-.26.48-.24.49-.21.47-.22.52-.22,4.25,10.79-.54.24-.51.24-.5.27-.47.3-.47.3-.46.33-.45.36-.42.35-.41.4-.4.4-.37.41-.38.46-.35.45-.34.45-.32.5-.29.49-10-5.77Zm12.47-11,.47-.19.5-.18.51-.16.49-.18.52-.14.53-.14.51-.13.54-.12.53-.1.54-.1.55-.1.53-.08.56-.06.57,0,.55-.06.58,0,.57,0h1.16l.6,0,.59,0,.59.06.62,0,.59.08.61.08.61.08.64.12.61.12.63.12.63.15.64.16.65.16-3.16,11.17-.77-.2-.78-.18-.75-.14-.75-.1-.73-.08-.71,0-.69,0h-.69l-.68,0-.65,0-.63.1-.63.12-.62.14-.59.16-.59.2-.55.19-4.25-10.79Zm18.22-.61.67.2.65.19.67.24.7.24.67.24.69.27.69.28.69.3.71.33.7.32.71.35.71.38.71.38.71.39.73.42.73.43.72.46.75.47.73.47.73.52.75.51.73.54.75.57.75.57.77.59.75.62.76.63.77.65.77.67.77.7.77.71.77.71-8,8.36-1.25-1.17-1.24-1.1-1.25-1-1.21-1-1.2-.93-1.19-.85-1.16-.81L130.31,62l-.57-.36-.57-.33-.56-.32L128,60.7l-.55-.28-.56-.28-.55-.27-.53-.26-.56-.24-.53-.22-.53-.21-.52-.2-.53-.18-.52-.18-.51-.16-.51-.13,3.16-11.17Zm23.36,22.63-4,4.09-4.2-4,4-4.17,4.17,4.09Zm-8.36-8.18.73-.75.75-.74.73-.71.75-.69.73-.67.73-.65.75-.64.74-.61.73-.59.73-.57.73-.56.73-.55.73-.51.73-.5.73-.49.74-.46.73-.45.71-.44.73-.41.71-.4.73-.37.71-.36.72-.33.71-.34.71-.32.71-.27.69-.28.71-.28.69-.23.7-.24.69-.2.69-.22,3.16,11.17-.49.14-.52.18-.51.16-.53.19-.52.2-.53.22-.53.22-.54.23-.53.26-.54.28-.55.27-.55.3-.56.32-.55.33-.55.34-.56.35-.57.38-.55.37-.58.42-.57.41-.57.44-.59.43-.58.48-.57.47-.59.5-.6.51-.59.53-.59.56-.59.55-.6.57-.61.62-.59.61-8.36-8.18Zm23.1-14.83.67-.15.65-.18.66-.14.65-.14.65-.12.65-.1.63-.09.66-.08.63-.08.63,0,.61,0,.64,0h.61l.61,0,.61,0,.62,0,.59,0,.59,0,.6.06.59.08.57.07.57.1.58.1.57.12.55.14.58.14.55.16.54.15.55.18.53.18.53.2.52.19-4.25,10.8-.63-.24-.66-.22-.67-.18-.67-.15-.69-.14-.71-.1L173.1,57l-.75-.06h-1.51l-.77.06-.77.08-.79.1-.81.14-.81.17-.83.22L162.9,46.54Zm19.19.77.53.22.52.24.51.24.51.23.52.26.49.28.48.27.49.28.47.3.48.31.45.32.46.32.45.33.44.34.43.33.44.38.41.36.42.37.41.38.4.39.39.4.38.39.39.42.36.41.35.44.36.43.36.44.33.45.34.46.31.45.32.47.3.46-9.85,6.15-.37-.56-.38-.55-.41-.51-.42-.52-.43-.49-.46-.48-.47-.45-.49-.44-.52-.41-.51-.4-.54-.37-.55-.36-.57-.33-.58-.3-.59-.3-.61-.25,4.25-10.8Zm13.5,11.37.29.47.28.48.28.49.27.5.52,1,.47,1,.43,1,.4,1.07.38,1.06.33,1.11.16.55.14.56.12.55.13.57.12.58.1.57.1.57.08.58.08.59.06.57.06.6,0,.59,0,.59,0,.59,0,.62v.59H189V75.4l0-.77-.08-.77-.08-.75-.12-.75-.16-.73-.16-.74-.19-.73-.22-.71-.24-.69-.26-.69-.29-.67-.3-.68-.33-.63-.36-.63-.38-.63,9.85-6.15Zm4.92,17.49-.06,73.62H188.89L189,76.17Zm-3.14,78.74-8.48,4.49v-9.61h5.79l2.69,5.12ZM192,144.65l.79-.39.77-.4.79-.35.77-.32.75-.32.77-.27.74-.26.75-.22,3.34,11.15-.56.18-.53.18-.53.17-.52.2-.51.22-.5.22-.47.23-.47.24L192,144.65Zm6.13-2.53.81-.23.81-.2.81-.18.81-.18.83-.14.81-.11.81-.08.81-.08.81-.06.81,0,.81,0,.81,0,.81,0,.81.06.79.08.81.08.79.11.81.14.79.16.79.18.79.18.77.21.79.24.77.26.77.25.78.3.77.32.75.31.77.36.75.36.75.39.73.4L217.9,155.5l-.5-.27-.49-.26-.51-.24-.5-.23-.49-.22-.52-.2-.51-.2-.49-.18-.52-.17-.51-.16-.52-.14-.51-.14-.51-.12-.54-.12-.51-.07-.51-.08-.52-.08-.53,0-.51,0-.52,0H206.1l-.51,0-.52,0-.51.06-.53.06-.52.1-.51.09-.52.1-.51.14-.51.14-3.34-11.15Zm25.33,3.13.71.39.69.44.69.41.7.46.67.47.69.47.65.5.68.51.65.54.65.55.65.55.63.58.64.59.63.61.61.61.61.66.6.65.59.65.59.69.58.69.55.7.57.73.54.73.55.75.53.77.52.77.51.79.5.79.49.83.49.81.48.85.45.85L232.29,171l-.36-.65-.36-.66-.37-.63-.38-.61-.37-.63-.4-.6-.39-.59-.42-.59-.39-.58-.42-.55-.43-.55-.44-.54-.43-.53-.44-.51-.45-.52-.44-.49-.47-.48-.46-.47-.47-.47-.47-.44-.48-.43-.49-.44-.48-.41-.49-.4-.5-.4-.51-.37-.49-.36-.52-.35-.51-.34-.51-.31-.54-.32-.51-.3,5.55-10.25Zm19.09,20.39.73,1.44.71,1.47.34.75.34.73.33.75.3.77.31.75.3.77.28.77.29.78.26.79.26.79.25.79.24.79-11.16,3.34-.42-1.39-.45-1.36-.48-1.32-.49-1.27-.52-1.24-.53-1.21-.57-1.19-.57-1.12,10.25-5.38Z"/><path d="M141.42,216.34l2.19-.83,2.18-.75,2.11-.7,2.09-.63,2.06-.55,2-.48,2-.43,2-.36,1.94-.29,1.89-.26,1.88-.2,1.84-.14,1.82-.09,1.79-.06h1.78l1.76,0,1.74.08,1.72.09,1.7.14,1.68.18,1.66.2,1.66.23,1.64.26,1.62.26,1.62.3,1.6.31,1.6.32,1.6.33,3.17.7,3.16.73L196.3,226l-2.83-.63-2.84-.63-1.45-.3-1.42-.3-1.44-.27-1.46-.26-1.45-.26-1.46-.22-1.48-.21-1.48-.18-1.51-.16-1.5-.14-1.52-.1-1.54-.07-1.54,0H169.8l-1.59,0-1.59.06-1.63.11-1.64.16-1.66.22-1.68.26-1.72.29-1.71.36-1.76.41-1.78.48-1.8.53-1.84.57-1.86.66-1.87.73-4.25-10.81Zm57.45-1.62,2.45.55,2.45.53,2.45.54,2.47.47,1.24.24,1.23.22,1.26.19,1.25.2,1.26.16,1.27.16,1.26.14,1.29.11,1.28.1,1.29.06,1.3.06,1.31,0,1.32,0,1.34,0,1.35-.08,1.36-.08,1.36-.13,1.39-.16,1.38-.2,1.4-.24,1.43-.25,1.44-.32,1.46-.36,1.47-.37,3.16,11.14-1.74.48-1.72.41-1.68.36L237,229l-1.64.27-1.62.24-1.6.2-1.58.16L229,230l-1.55.08-1.52.06-1.52,0-1.5,0-1.48,0-1.47-.08-1.46-.07L217,229.8l-1.42-.16-1.43-.16-1.4-.18-1.4-.22-1.41-.21-1.38-.24-1.38-.26-1.37-.25-1.38-.28-1.36-.28-1.35-.29-2.72-.62L196.3,226l2.57-11.32ZM248,221.81l0,4.41-4.19,1.16-1.58-5.57Zm-11.59,0,.08-42.49h11.56L248,221.81Zm.08-42.49v-2.39l1.68-1.7,4.09,4.09Zm1.68-4.09,37.45-37.63,8.18,8.18-37.44,37.63-8.19-8.18Zm45.63-37.71,4.17,4.07-4.17,4.19-4.09-4.09,4.09-4.17Zm-8.18,8.36L234.56,105.8l8.16-8.36,41.08,40.08-8.18,8.36ZM234.56,105.8l-1.7-1.66v-2.53h5.77l-4.07,4.19Zm-1.7-4.19,0-55.07h11.58l-.06,55.07Zm5.83-60.86h5.79v5.79h-5.79V40.75Zm0,11.57-57.83,0V40.81l57.83-.06V52.32Zm-57.83,0h-2.37l-1.72-1.68,4.09-4.09v5.77Zm-4.09-1.68L138.06,12.25l8.18-8.16L185,42.51l-8.18,8.18ZM138.06,4.09,142.13,0l4.11,4.09-4.09,4.09-4.09-4.09Zm8.18,8.16L108.1,50.75l-8.16-8.18L138.06,4.09l8.18,8.16ZM108.1,50.75l-1.68,1.7-2.39,0V46.66l4.07,4.09ZM104,52.43l-56.52-.06V40.81l56.52.06V52.43ZM41.74,46.6V40.81h5.77V46.6Zm11.56,0,0,56.86H41.76l0-56.86Zm0,56.86v2.4l-1.68,1.7-4.09-4.1Zm-1.68,4.1L12.25,147l-8.16-8.19L43.46,99.37l8.18,8.19ZM4.09,147,0,142.85l4.09-4.09,4.07,4.09L4.09,147Zm8.16-8.19,39.66,39.79-8.16,8.18L4.09,147l8.16-8.19Zm39.66,39.79,1.7,1.7v2.39H47.82l4.09-4.09Zm1.7,4.09-.07,40.71H42l.08-40.71Zm-7.52,46.29L42,227.7v-4.35h5.8l-1.68,5.58Zm3.33-11.17,1.27.38,1.28.29,1.27.28,1.26.24,1.29.19,1.26.16,1.29.12,1.28.08,1.27,0,1.28,0h1.29l1.28,0,1.29-.08,1.28-.08,1.28-.12,1.29-.16,1.28-.15,1.29-.18,1.28-.22,1.29-.22,1.28-.23,1.29-.26,1.28-.28,1.29-.27,2.58-.6,2.57-.63,2.55-.65,2.57-.65,2.77,11.34-2.85.73-2.84.71-1.43.36-1.42.33-1.44.34-1.42.32-1.45.31-1.44.28-1.44.28L76,230l-1.44.24-1.46.22-1.44.2-1.47.15-1.46.16-1.48.12-1.46.08-1.48.06-1.49,0-1.5,0-1.5,0-1.5-.08-1.5-.14-1.53-.16-1.52-.19-1.52-.26-1.54-.3-1.54-.33-1.54-.4-1.56-.43,3.33-11.17Zm41-3,3.46-.89,3.46-.85,1.72-.42,1.74-.39,1.72-.38,1.72-.37,1.73-.34,1.72-.3,1.74-.27,1.72-.26,1.74-.2,1.74-.18,1.72-.13,1.74-.08,1.76,0h1.74l1.74.08,1.75.11,1.76.18,1.76.24,1.76.32,1.78.37,1.78.44,1.78.53,1.78.59,1.79.67,1.8.76,1.82.85,1.8.92,1.82,1-6,10-1.44-.79-1.43-.73-1.44-.65-1.44-.59-1.45-.52-1.46-.45-1.44-.4-1.46-.33-1.47-.28-1.46-.22-1.46-.16-1.48-.12-1.46-.07-1.49,0-1.48,0-1.48.06-1.48.09-1.49.14-1.5.18-1.48.2-1.5.22-1.5.25-1.51.3-1.5.29-1.5.32-1.5.34-1.5.35-1.52.36-3,.77-3,.77-2.77-11.34Zm55.24,12.41-2.67,1-2.43-1.45,3-5,2.12,5.4Z"/><path d="M53.28,102.1l.63,2L54.6,106l.77,1.84.81,1.78.87,1.74L58,113l1,1.62,1,1.56L61,117.69l1.13,1.49,1.17,1.42,1.2,1.38,1.25,1.35,1.28,1.3,1.33,1.27,1.34,1.24,1.4,1.21,1.43,1.16L74,130.66l1.48,1.11,1.5,1.1,1.53,1.07L80.08,135l1.56,1,1.58,1,1.6,1,1.62,1,1.64,1,3.28,2,3.32,2-6,10L85,151.85l-3.66-2.2-1.82-1.1-1.78-1.11L76,146.31l-1.76-1.14L72.49,144l-1.74-1.19-1.7-1.22-1.68-1.25-1.64-1.26-1.62-1.31-1.6-1.34L61,135.05l-1.53-1.43-1.5-1.46-1.44-1.52-1.4-1.56-1.37-1.62-1.32-1.66-1.27-1.74-1.22-1.78-1.17-1.86-1.12-1.92-1.07-2-1-2.06-.95-2.13-.89-2.21-.83-2.3-.77-2.37,11.17-3.34ZM94.68,144l2.23,1.31,2.26,1.32L101.4,148l2.23,1.35,2.22,1.38,2.21,1.4,2.19,1.43,2.18,1.46,2.13,1.52L116.7,158l2.09,1.6,2.06,1.66,2,1.72,2,1.78,1.93,1.84,1.9,1.92,1.82,2,1.78,2.08,1.72,2.17,1.66,2.26,1.6,2.35,1.52,2.47,1.44,2.55,1.39,2.69,1.28,2.78,1.21,2.91,1.12,3,1,3.16.95,3.28.83,3.44.75,3.58.61,3.74-11.56,1.66-.53-3.21-.65-3.1-.74-3-.83-2.87-.91-2.73-1-2.64-1.07-2.53-1.17-2.44-1.22-2.33-1.29-2.23-1.36-2.16-1.42-2.05-1.5-2-1.55-1.89-1.6-1.84L119.34,176l-1.7-1.7-1.74-1.64-1.77-1.58-1.82-1.52-1.86-1.47-1.88-1.44-1.91-1.38-1.94-1.35-2-1.32-2-1.29-2-1.24-2-1.25-4-2.41L88.71,154l6-10Zm54.7,70.66-5.2,41.88-6.36-41.8,5.79-.83,5.77.75Zm-11.56-1.51.48-3.34.57-3.2.65-3.08.75-3,.83-2.85.91-2.75,1-2.63,1.07-2.53,1.14-2.43,1.23-2.35,1.28-2.25,1.35-2.16,1.42-2.09,1.48-2,1.54-1.93,1.6-1.86,1.64-1.82,1.72-1.74,1.74-1.7,1.8-1.66,1.84-1.6,1.9-1.56,1.91-1.52,2-1.49,2-1.46,2-1.44,2.06-1.42,2.07-1.43,2.1-1.38,2.11-1.4,2.11-1.39,2.16-1.4,6.32,9.66-3.83,2.49L185,162.93l-1.85,1.25-1.84,1.28-1.8,1.29-1.78,1.3-1.76,1.33-1.72,1.34-1.68,1.39-1.64,1.42-1.6,1.46-1.58,1.48L166.18,178l-1.46,1.61-1.43,1.64-1.38,1.7-1.32,1.73-1.27,1.84-1.2,1.88-1.15,2-1.07,2-1,2.12-.95,2.17-.87,2.29-.81,2.36-.73,2.47-.65,2.55-.58,2.64-.49,2.77-.42,2.87-11.56-1.51Zm48.4-64.86,3.24-2.12,3.26-2.15,1.64-1.09,1.62-1.1,1.64-1.13,1.64-1.15,1.62-1.16,1.62-1.19,1.62-1.22,1.6-1.25,1.6-1.26,1.59-1.31,1.58-1.34,1.56-1.39,1.56-1.4,1.52-1.46,1.52-1.5,1.48-1.54,1.49-1.59,1.46-1.64,1.42-1.7,1.41-1.74,1.38-1.79,1.34-1.86,1.33-1.92,1.3-2,1.27-2,1.22-2.12L233,103l1.14-2.23,10.44,5.2-1.29,2.49-1.32,2.41-1.35,2.33-1.4,2.25-1.42,2.18-1.44,2.11-1.49,2.06-1.52,2-1.52,1.92-1.56,1.86-1.58,1.8-1.6,1.74-1.64,1.69-1.64,1.65L222.11,136l-1.68,1.54-1.68,1.5L217,140.48l-1.72,1.43-1.72,1.38-1.74,1.34L210.11,146l-1.76,1.28-1.76,1.27-1.76,1.24L203.08,151l-1.76,1.2-1.76,1.19L196,155.66l-3.5,2.27-6.32-9.66Z"/><polygon points="138.29 216.89 138.29 65.18 149.88 65.18 149.88 216.89 138.29 216.89 138.29 216.89"/></g></g></svg>