<?xml version="1.0" encoding="UTF-8"?>
<svg xmlns="http://www.w3.org/2000/svg" xmlns:xlink="http://www.w3.org/1999/xlink" width="612pt" height="792pt" viewBox="0 0 612 792" version="1.1">
<g id="surface1">
<path style=" stroke:none;fill-rule:evenodd;fill:rgb(95.701599%,48.631287%,12.547302%);fill-opacity:1;" d="M 234.429688 396.867188 C 234.429688 391.601563 232.554688 389.203125 231.5625 388.296875 C 231.367188 388.128906 231.066406 388.265625 231.09375 388.542969 C 231.285156 391.519531 227.535156 392.265625 227.535156 396.921875 L 227.535156 396.949219 C 227.535156 399.789063 229.6875 402.105469 232.335938 402.105469 C 234.980469 402.105469 237.128906 399.789063 237.128906 396.949219 L 237.128906 396.921875 C 237.128906 395.601563 236.632813 394.332031 236.136719 393.394531 C 236.027344 393.203125 235.753906 393.285156 235.777344 393.449219 C 236.6875 397.476563 234.429688 399.957031 234.429688 396.867188 "/>
<path style=" stroke:none;fill-rule:evenodd;fill:rgb(95.701599%,48.631287%,12.547302%);fill-opacity:1;" d="M 228.722656 407.976563 C 228.613281 407.976563 228.472656 407.921875 228.390625 407.839844 L 216.125 395.574219 C 215.960938 395.40625 215.960938 395.105469 216.125 394.910156 L 229.082031 381.953125 C 229.164063 381.898438 229.273438 381.84375 229.382813 381.84375 L 233.105469 381.84375 C 233.324219 381.84375 233.464844 381.980469 233.519531 382.121094 C 233.574219 382.257813 233.574219 382.449219 233.410156 382.617188 L 221.253906 394.800781 C 221.003906 395.050781 221.003906 395.433594 221.253906 395.683594 L 230.871094 405.332031 C 231.039063 405.496094 231.039063 405.800781 230.871094 405.992188 L 229.023438 407.867188 C 228.941406 407.921875 228.832031 407.976563 228.722656 407.976563 "/>
<path style=" stroke:none;fill-rule:evenodd;fill:rgb(95.701599%,48.631287%,12.547302%);fill-opacity:1;" d="M 231.175781 410.128906 C 230.953125 410.128906 230.816406 409.988281 230.761719 409.851563 C 230.707031 409.714844 230.707031 409.523438 230.871094 409.355469 L 243.058594 397.171875 C 243.167969 397.0625 243.25 396.894531 243.25 396.730469 C 243.25 396.566406 243.195313 396.398438 243.058594 396.289063 L 233.410156 386.640625 C 233.242188 386.476563 233.242188 386.171875 233.410156 385.980469 L 235.28125 384.105469 C 235.367188 384.023438 235.476563 383.96875 235.613281 383.96875 C 235.753906 383.96875 235.835938 384.050781 235.917969 384.132813 L 248.15625 396.398438 C 248.238281 396.480469 248.296875 396.59375 248.296875 396.730469 C 248.296875 396.867188 248.238281 396.980469 248.15625 397.0625 L 235.199219 410.019531 C 235.117188 410.101563 235.007813 410.15625 234.871094 410.15625 L 231.175781 410.15625 L 231.175781 410.128906 "/>
<path style=" stroke:none;fill-rule:evenodd;fill:rgb(26.660156%,27.050781%,27.050781%);fill-opacity:1;" d="M 258.136719 403.566406 C 257.171875 403.566406 256.316406 403.402344 255.628906 403.042969 C 254.9375 402.710938 254.304688 402.214844 253.78125 401.636719 L 253.699219 401.554688 L 254.058594 401.003906 C 254.222656 400.8125 254.359375 400.78125 254.46875 400.78125 C 254.578125 400.78125 254.691406 400.839844 254.800781 400.949219 C 254.882813 401.03125 255.019531 401.140625 255.160156 401.253906 C 255.296875 401.363281 255.464844 401.5 255.628906 401.636719 C 255.820313 401.773438 256.015625 401.886719 256.261719 401.996094 C 256.511719 402.105469 256.785156 402.214844 257.089844 402.269531 C 257.390625 402.355469 257.75 402.382813 258.164063 402.382813 C 258.714844 402.382813 259.210938 402.300781 259.625 402.132813 C 260.039063 401.96875 260.398438 401.746094 260.699219 401.472656 C 260.976563 401.195313 261.222656 400.867188 261.363281 400.480469 C 261.527344 400.09375 261.582031 399.679688 261.582031 399.238281 C 261.582031 398.769531 261.5 398.382813 261.304688 398.082031 C 261.113281 397.777344 260.863281 397.53125 260.535156 397.308594 C 260.203125 397.089844 259.84375 396.921875 259.433594 396.785156 C 259.019531 396.648438 258.578125 396.480469 258.109375 396.34375 C 257.640625 396.207031 257.199219 396.039063 256.785156 395.875 C 256.34375 395.683594 255.929688 395.460938 255.601563 395.1875 C 255.242188 394.910156 254.964844 394.523438 254.746094 394.113281 C 254.523438 393.671875 254.414063 393.144531 254.414063 392.511719 C 254.414063 392.015625 254.496094 391.519531 254.691406 391.050781 C 254.882813 390.582031 255.160156 390.171875 255.519531 389.8125 C 255.875 389.453125 256.34375 389.175781 256.867188 388.957031 C 257.390625 388.734375 258.027344 388.625 258.6875 388.625 C 259.460938 388.625 260.148438 388.734375 260.753906 388.984375 C 261.363281 389.230469 261.914063 389.617188 262.4375 390.113281 L 262.519531 390.195313 L 262.214844 390.777344 C 262.050781 391.078125 261.746094 391.160156 261.363281 390.804688 C 261.222656 390.691406 261.058594 390.554688 260.8125 390.417969 C 260.589844 390.28125 260.285156 390.140625 259.957031 390.003906 C 259.625 389.894531 259.210938 389.8125 258.6875 389.8125 C 258.191406 389.8125 257.75 389.894531 257.363281 390.03125 C 257.007813 390.171875 256.675781 390.363281 256.425781 390.609375 C 256.179688 390.859375 255.984375 391.136719 255.847656 391.4375 C 255.710938 391.742188 255.65625 392.097656 255.65625 392.429688 C 255.65625 392.871094 255.738281 393.257813 255.929688 393.53125 C 256.125 393.835938 256.371094 394.085938 256.703125 394.304688 C 257.035156 394.523438 257.390625 394.691406 257.804688 394.855469 C 258.21875 394.992188 258.660156 395.160156 259.128906 395.296875 C 259.570313 395.433594 260.039063 395.601563 260.453125 395.792969 C 260.894531 395.984375 261.304688 396.207031 261.636719 396.480469 C 261.996094 396.757813 262.269531 397.117188 262.492188 397.53125 C 262.714844 397.945313 262.824219 398.46875 262.824219 399.074219 C 262.824219 399.679688 262.714844 400.285156 262.492188 400.839844 C 262.269531 401.390625 261.96875 401.859375 261.554688 402.269531 C 261.140625 402.683594 260.644531 402.988281 260.066406 403.238281 C 259.570313 403.429688 258.882813 403.566406 258.136719 403.566406 "/>
<path style=" stroke:none;fill-rule:evenodd;fill:rgb(26.660156%,27.050781%,27.050781%);fill-opacity:1;" d="M 271.671875 403.539063 C 270.652344 403.539063 269.6875 403.347656 268.859375 403.015625 C 268.003906 402.65625 267.261719 402.160156 266.65625 401.5 C 266.046875 400.839844 265.550781 400.066406 265.222656 399.128906 C 264.890625 398.21875 264.695313 397.171875 264.695313 396.070313 C 264.695313 394.964844 264.863281 393.917969 265.222656 393.007813 C 265.550781 392.097656 266.046875 391.300781 266.65625 390.636719 C 267.261719 389.976563 268.003906 389.480469 268.859375 389.121094 C 269.714844 388.761719 270.652344 388.570313 271.671875 388.570313 C 272.71875 388.570313 273.65625 388.761719 274.511719 389.09375 C 275.367188 389.453125 276.109375 389.949219 276.71875 390.609375 C 277.324219 391.273438 277.820313 392.070313 278.148438 392.980469 C 278.480469 393.890625 278.644531 394.910156 278.644531 396.039063 C 278.644531 397.171875 278.480469 398.191406 278.148438 399.101563 C 277.820313 400.011719 277.324219 400.8125 276.71875 401.472656 C 276.109375 402.132813 275.367188 402.628906 274.511719 402.988281 C 273.65625 403.375 272.691406 403.539063 271.671875 403.539063 Z M 277.40625 396.070313 C 277.40625 395.078125 277.269531 394.167969 276.992188 393.367188 C 276.71875 392.566406 276.332031 391.90625 275.835938 391.355469 C 275.339844 390.804688 274.730469 390.390625 274.015625 390.085938 C 273.296875 389.785156 272.527344 389.644531 271.671875 389.644531 C 270.816406 389.644531 270.046875 389.785156 269.328125 390.085938 C 268.613281 390.390625 268.003906 390.804688 267.507813 391.355469 C 267.011719 391.90625 266.601563 392.566406 266.324219 393.367188 C 266.046875 394.167969 265.910156 395.050781 265.910156 396.070313 C 265.910156 397.0625 266.046875 397.972656 266.324219 398.769531 C 266.601563 399.570313 266.984375 400.230469 267.507813 400.78125 C 268.003906 401.335938 268.613281 401.746094 269.328125 402.050781 C 270.046875 402.355469 270.816406 402.492188 271.671875 402.492188 C 272.527344 402.492188 273.324219 402.355469 274.015625 402.050781 C 274.730469 401.773438 275.339844 401.335938 275.835938 400.78125 C 276.332031 400.230469 276.71875 399.570313 276.992188 398.769531 C 277.269531 397.972656 277.40625 397.089844 277.40625 396.070313 "/>
<path style=" stroke:none;fill-rule:evenodd;fill:rgb(26.660156%,27.050781%,27.050781%);fill-opacity:1;" d="M 286.667969 403.566406 C 285.8125 403.566406 285.042969 403.429688 284.351563 403.125 C 283.664063 402.824219 283.058594 402.410156 282.589844 401.886719 C 282.121094 401.363281 281.734375 400.726563 281.484375 400.039063 C 281.238281 399.347656 281.101563 398.578125 281.101563 397.777344 L 281.101563 388.765625 L 282.476563 388.765625 L 282.476563 397.777344 C 282.476563 398.410156 282.589844 399.019531 282.753906 399.597656 C 282.945313 400.148438 283.222656 400.644531 283.582031 401.03125 C 283.9375 401.445313 284.378906 401.746094 284.902344 401.996094 C 285.429688 402.214844 286.007813 402.355469 286.667969 402.355469 C 287.328125 402.355469 287.9375 402.242188 288.433594 402.023438 C 288.957031 401.804688 289.398438 401.472656 289.757813 401.058594 C 290.113281 400.644531 290.390625 400.175781 290.582031 399.625 C 290.777344 399.074219 290.859375 398.46875 290.859375 397.804688 L 290.859375 388.765625 L 292.238281 388.765625 L 292.238281 397.777344 C 292.238281 398.578125 292.097656 399.347656 291.851563 400.039063 C 291.601563 400.726563 291.21875 401.363281 290.746094 401.886719 C 290.28125 402.410156 289.671875 402.824219 288.984375 403.125 C 288.296875 403.429688 287.523438 403.566406 286.667969 403.566406 "/>
<path style=" stroke:none;fill-rule:evenodd;fill:rgb(26.660156%,27.050781%,27.050781%);fill-opacity:1;" d="M 305.578125 403.402344 L 304.339844 403.402344 C 304.199219 403.402344 304.089844 403.375 303.980469 403.320313 C 303.871094 403.265625 303.789063 403.179688 303.703125 403.070313 L 299.128906 397.28125 C 299.019531 397.144531 298.9375 397.0625 298.824219 397.007813 C 298.714844 396.980469 298.054688 396.921875 297.695313 396.921875 L 297.53125 396.921875 L 297.53125 396.207031 C 297.53125 395.960938 297.585938 395.820313 298.027344 395.820313 C 298.273438 395.820313 298.300781 395.820313 298.300781 395.820313 L 298.90625 395.820313 C 299.515625 395.820313 300.066406 395.738281 300.5625 395.601563 C 301.03125 395.460938 301.445313 395.242188 301.773438 394.964844 C 302.105469 394.691406 302.355469 394.386719 302.519531 394 C 302.683594 393.617188 302.769531 393.203125 302.769531 392.734375 C 302.769531 391.769531 302.464844 391.078125 301.828125 390.609375 C 301.195313 390.140625 300.257813 389.894531 299.019531 389.894531 L 296.566406 389.894531 L 296.566406 403.375 L 295.1875 403.375 L 295.1875 388.765625 L 299.019531 388.765625 C 300.699219 388.765625 301.96875 389.09375 302.824219 389.757813 C 303.675781 390.417969 304.117188 391.410156 304.117188 392.707031 C 304.117188 393.285156 304.007813 393.808594 303.816406 394.277344 C 303.621094 394.746094 303.320313 395.160156 302.960938 395.519531 C 302.601563 395.875 302.132813 396.152344 301.636719 396.398438 C 301.222656 396.566406 300.78125 396.703125 300.285156 396.785156 C 300.34375 396.839844 300.398438 396.894531 300.453125 396.980469 L 305.578125 403.402344 "/>
<path style=" stroke:none;fill-rule:evenodd;fill:rgb(26.660156%,27.050781%,27.050781%);fill-opacity:1;" d="M 312.773438 403.566406 C 311.753906 403.566406 310.816406 403.375 309.988281 403.042969 C 309.136719 402.683594 308.417969 402.1875 307.8125 401.527344 C 307.207031 400.867188 306.738281 400.09375 306.40625 399.15625 C 306.074219 398.246094 305.910156 397.199219 305.910156 396.097656 C 305.910156 394.992188 306.074219 393.972656 306.433594 393.0625 C 306.792969 392.152344 307.289063 391.355469 307.894531 390.691406 C 308.527344 390.03125 309.300781 389.507813 310.15625 389.148438 C 311.039063 388.789063 312.003906 388.597656 313.078125 388.597656 C 313.601563 388.597656 314.097656 388.625 314.539063 388.710938 C 314.980469 388.789063 315.394531 388.902344 315.777344 389.039063 C 316.164063 389.175781 316.523438 389.371094 316.855469 389.589844 C 317.183594 389.8125 317.515625 390.058594 317.847656 390.363281 L 317.957031 390.472656 L 317.570313 391.050781 C 317.515625 391.136719 317.40625 391.246094 317.183594 391.246094 C 317.074219 391.246094 316.992188 391.1875 316.855469 391.105469 C 316.769531 391.023438 316.632813 390.941406 316.496094 390.859375 C 316.359375 390.746094 316.191406 390.636719 315.972656 390.527344 C 315.777344 390.417969 315.53125 390.308594 315.257813 390.195313 C 314.980469 390.085938 314.648438 390.003906 314.289063 389.949219 C 313.933594 389.894531 313.519531 389.839844 313.050781 389.839844 C 312.195313 389.839844 311.425781 389.976563 310.707031 390.28125 C 310.019531 390.582031 309.382813 390.996094 308.886719 391.519531 C 308.390625 392.042969 307.976563 392.703125 307.703125 393.476563 C 307.425781 394.25 307.261719 395.132813 307.261719 396.070313 C 307.261719 397.0625 307.398438 397.941406 307.675781 398.714844 C 307.949219 399.488281 308.335938 400.148438 308.832031 400.671875 C 309.328125 401.195313 309.90625 401.609375 310.597656 401.886719 C 311.257813 402.160156 312.003906 402.300781 312.800781 402.300781 C 313.296875 402.300781 313.765625 402.269531 314.152344 402.1875 C 314.539063 402.132813 314.898438 402.023438 315.226563 401.886719 C 315.558594 401.746094 315.863281 401.582031 316.136719 401.417969 C 316.414063 401.222656 316.6875 401.003906 316.964844 400.753906 C 317.019531 400.699219 317.046875 400.699219 317.101563 400.671875 C 317.238281 400.589844 317.460938 400.617188 317.570313 400.753906 L 318.09375 401.304688 L 317.984375 401.417969 C 317.679688 401.746094 317.351563 402.023438 316.992188 402.300781 C 316.632813 402.546875 316.246094 402.796875 315.808594 402.960938 C 315.394531 403.152344 314.925781 403.289063 314.402344 403.375 C 313.933594 403.511719 313.382813 403.566406 312.773438 403.566406 Z M 316.992188 390.9375 C 316.980469 390.929688 316.972656 390.921875 316.964844 390.914063 C 316.882813 390.832031 316.746094 390.746094 316.605469 390.636719 L 316.59375 390.628906 L 316.605469 390.636719 C 316.742188 390.746094 316.882813 390.832031 316.964844 390.914063 C 316.972656 390.921875 316.980469 390.929688 316.992188 390.9375 "/>
<path style=" stroke:none;fill-rule:evenodd;fill:rgb(26.660156%,27.050781%,27.050781%);fill-opacity:1;" d="M 329.261719 403.402344 L 320.355469 403.402344 L 320.355469 388.765625 L 329.261719 388.765625 L 329.261719 389.949219 L 321.734375 389.949219 L 321.734375 395.378906 L 327.992188 395.378906 L 327.992188 396.566406 L 321.734375 396.566406 L 321.734375 402.1875 L 329.261719 402.1875 L 329.261719 403.402344 "/>
<path style=" stroke:none;fill-rule:evenodd;fill:rgb(26.660156%,27.050781%,27.050781%);fill-opacity:1;" d="M 341.914063 388.765625 L 341.914063 390.941406 L 335.433594 390.941406 L 335.433594 395.269531 L 340.894531 395.269531 L 340.894531 397.445313 L 335.433594 397.445313 L 335.433594 403.402344 L 332.707031 403.402344 L 332.707031 388.789063 L 341.914063 388.789063 L 341.914063 388.765625 "/>
<path style=" stroke:none;fill-rule:evenodd;fill:rgb(26.660156%,27.050781%,27.050781%);fill-opacity:1;" d="M 357.765625 396.070313 C 357.765625 397.144531 357.597656 398.136719 357.242188 399.046875 C 356.882813 399.957031 356.386719 400.753906 355.722656 401.417969 C 355.089844 402.078125 354.289063 402.601563 353.382813 402.988281 C 352.472656 403.375 351.449219 403.539063 350.347656 403.539063 C 349.246094 403.539063 348.226563 403.347656 347.316406 402.988281 C 346.40625 402.601563 345.636719 402.105469 344.972656 401.417969 C 344.3125 400.753906 343.816406 399.957031 343.457031 399.046875 C 343.097656 398.136719 342.933594 397.144531 342.933594 396.070313 C 342.933594 394.992188 343.097656 394 343.457031 393.09375 C 343.816406 392.183594 344.3125 391.382813 344.972656 390.722656 C 345.636719 390.058594 346.40625 389.535156 347.316406 389.148438 C 348.226563 388.761719 349.246094 388.597656 350.347656 388.597656 C 351.449219 388.597656 352.472656 388.789063 353.382813 389.175781 C 354.289063 389.5625 355.0625 390.085938 355.722656 390.746094 C 356.359375 391.410156 356.882813 392.210938 357.242188 393.117188 C 357.570313 394 357.765625 394.992188 357.765625 396.070313 Z M 354.980469 396.070313 C 354.980469 395.269531 354.871094 394.554688 354.648438 393.917969 C 354.429688 393.285156 354.125 392.734375 353.738281 392.292969 C 353.355469 391.851563 352.855469 391.519531 352.277344 391.273438 C 351.699219 391.023438 351.066406 390.914063 350.347656 390.914063 C 349.632813 390.914063 348.996094 391.023438 348.417969 391.273438 C 347.839844 391.519531 347.371094 391.851563 346.957031 392.292969 C 346.546875 392.734375 346.242188 393.285156 346.019531 393.917969 C 345.800781 394.554688 345.691406 395.269531 345.691406 396.070313 C 345.691406 396.867188 345.800781 397.585938 346.019531 398.21875 C 346.242188 398.851563 346.546875 399.402344 346.957031 399.84375 C 347.371094 400.285156 347.839844 400.617188 348.417969 400.867188 C 348.996094 401.113281 349.632813 401.222656 350.347656 401.222656 C 351.066406 401.222656 351.699219 401.113281 352.277344 400.867188 C 352.855469 400.617188 353.324219 400.285156 353.738281 399.84375 C 354.125 399.402344 354.429688 398.851563 354.648438 398.21875 C 354.871094 397.585938 354.980469 396.867188 354.980469 396.070313 "/>
<path style=" stroke:none;fill-rule:evenodd;fill:rgb(26.660156%,27.050781%,27.050781%);fill-opacity:1;" d="M 363.441406 395.738281 L 364.078125 395.738281 C 364.601563 395.738281 365.042969 395.683594 365.429688 395.546875 C 365.8125 395.40625 366.117188 395.242188 366.363281 395.019531 C 366.613281 394.800781 366.804688 394.523438 366.914063 394.222656 C 367.027344 393.917969 367.109375 393.558594 367.109375 393.203125 C 367.109375 392.457031 366.859375 391.878906 366.363281 391.492188 C 365.867188 391.105469 365.125 390.886719 364.132813 390.886719 L 362.367188 390.886719 L 362.367188 403.402344 L 359.640625 403.402344 L 359.640625 388.789063 L 364.105469 388.789063 C 365.097656 388.789063 365.953125 388.902344 366.667969 389.09375 C 367.386719 389.285156 367.964844 389.589844 368.40625 389.949219 C 368.847656 390.308594 369.203125 390.777344 369.398438 391.273438 C 369.617188 391.796875 369.730469 392.347656 369.730469 392.980469 C 369.730469 393.476563 369.644531 393.945313 369.507813 394.386719 C 369.371094 394.828125 369.148438 395.214844 368.875 395.574219 C 368.597656 395.929688 368.269531 396.234375 367.855469 396.511719 C 367.441406 396.785156 367 397.007813 366.476563 397.144531 C 366.808594 397.335938 367.109375 397.613281 367.359375 397.972656 L 371.023438 403.375 L 368.570313 403.375 C 368.324219 403.375 368.128906 403.320313 367.964844 403.234375 C 367.800781 403.152344 367.660156 403.015625 367.550781 402.824219 L 364.492188 398.136719 C 364.40625 398.027344 364.242188 397.777344 364.078125 397.75 C 363.746094 397.75 363.414063 397.75 363.113281 397.75 C 363.113281 397.75 363.113281 396.097656 363.113281 395.984375 C 363.140625 395.738281 363.441406 395.738281 363.441406 395.738281 "/>
<path style=" stroke:none;fill-rule:evenodd;fill:rgb(26.660156%,27.050781%,27.050781%);fill-opacity:1;" d="M 379.019531 401.390625 C 379.625 401.390625 380.175781 401.335938 380.617188 401.222656 C 381.058594 401.113281 381.5 400.949219 381.914063 400.753906 L 381.914063 397.445313 L 380.09375 397.445313 C 379.929688 397.445313 379.789063 397.390625 379.679688 397.308594 C 379.570313 397.199219 379.515625 397.089844 379.515625 396.949219 L 379.515625 395.40625 L 384.367188 395.40625 L 384.367188 401.96875 C 384.007813 402.242188 383.621094 402.464844 383.210938 402.65625 C 382.796875 402.851563 382.382813 403.015625 381.914063 403.152344 C 381.445313 403.289063 380.976563 403.375 380.453125 403.429688 C 379.929688 403.484375 379.378906 403.511719 378.769531 403.511719 C 377.695313 403.511719 376.730469 403.320313 375.820313 402.960938 C 374.910156 402.601563 374.140625 402.078125 373.503906 401.417969 C 372.84375 400.753906 372.347656 399.957031 371.960938 399.046875 C 371.601563 398.136719 371.410156 397.117188 371.410156 396.039063 C 371.410156 394.9375 371.574219 393.945313 371.933594 393.007813 C 372.292969 392.097656 372.789063 391.300781 373.449219 390.636719 C 374.113281 389.976563 374.910156 389.453125 375.847656 389.09375 C 376.785156 388.734375 377.832031 388.542969 378.992188 388.542969 C 380.175781 388.542969 381.222656 388.710938 382.078125 389.066406 C 382.960938 389.425781 383.675781 389.894531 384.285156 390.445313 L 383.484375 391.6875 C 383.320313 391.933594 383.125 392.070313 382.878906 392.070313 C 382.714844 392.070313 382.546875 392.015625 382.382813 391.90625 C 382.160156 391.769531 381.941406 391.65625 381.71875 391.519531 C 381.5 391.382813 381.253906 391.273438 380.976563 391.1875 C 380.699219 391.105469 380.398438 391.023438 380.066406 390.96875 C 379.734375 390.914063 379.320313 390.886719 378.882813 390.886719 C 378.164063 390.886719 377.503906 390.996094 376.921875 391.246094 C 376.34375 391.492188 375.847656 391.824219 375.433594 392.292969 C 375.019531 392.734375 374.71875 393.285156 374.496094 393.917969 C 374.277344 394.554688 374.167969 395.269531 374.167969 396.039063 C 374.167969 396.894531 374.277344 397.640625 374.523438 398.300781 C 374.773438 398.964844 375.105469 399.515625 375.519531 399.957031 C 375.929688 400.398438 376.453125 400.753906 377.035156 401.003906 C 377.613281 401.253906 378.328125 401.390625 379.019531 401.390625 "/>
<path style=" stroke:none;fill-rule:evenodd;fill:rgb(26.660156%,27.050781%,27.050781%);fill-opacity:1;" d="M 393.988281 397.503906 L 389.550781 397.503906 L 389.550781 401.195313 L 396 401.195313 L 396 403.375 L 386.792969 403.375 L 386.792969 388.761719 L 396 388.765625 L 396 390.941406 L 389.523438 390.941406 L 389.523438 395.433594 L 394.621094 395.433594 L 394.621094 397.035156 C 394.621094 397.035156 394.59375 397.503906 393.988281 397.503906 "/>
</g>
</svg>
