<?xml version="1.0" encoding="UTF-8"?>
<svg xmlns="http://www.w3.org/2000/svg" xmlns:xlink="http://www.w3.org/1999/xlink" width="289pt" height="178pt" viewBox="0 0 289 178" version="1.1">
<g id="surface1">
<path style=" stroke:none;fill-rule:evenodd;fill:rgb(38.798523%,25.498962%,63.899231%);fill-opacity:1;" d="M 282 115 L 270 104 L 249 104 L 249 89 L 230 89 L 230 157 L 249 157 L 249 122 L 263 122 L 263 157 L 282 157 Z M 223 104 L 195 104 L 184 115 L 184 145 L 196 157 L 223 157 L 223 138 L 203 138 L 203 122 L 223 122 Z M 177 104 L 163 104 L 163 89 L 145 89 L 145 145 L 156 157 L 177 157 L 177 138 L 163 138 L 163 122 L 177 122 Z M 138 89 L 121 89 L 121 97 L 138 97 Z M 138 104 L 121 104 L 121 157 L 138 157 Z M 114 104 L 96 104 L 96 138 L 89 138 L 89 104 L 72 104 L 72 138 L 65 138 L 65 104 L 46 104 L 46 157 L 102 157 L 114 145 Z M 39 104 L 25 104 L 25 89 L 7 89 L 7 145 L 18 157 L 39 157 L 39 138 L 25 138 L 25 122 L 39 122 Z M 289 113 L 289 160 L 263 178 L 247 178 L 247 170 L 235 178 L 221 178 L 221 170 L 212 178 L 186 178 L 178 170 L 176 178 L 153.054688 177.941406 L 144 170 L 143 178 L 116.992188 177.941406 L 116 170 L 109.003906 177.941406 L 69 178 L 61 174 L 61 178 L 39 178 L 15 163 L 0 148 L 0 82 L 31 82 L 46 97 L 114 97 L 114 82 L 170 82 L 170 97 L 184 97 L 184 105 L 192 97 L 209 97 L 224 82 L 256 82 L 256 97 L 273 97 Z M 204 20 L 211 20 L 211 40 L 204 40 Z M 222 20 L 229 20 L 229 40 L 222 40 Z M 240 43 L 229 54 L 211 54 L 201 64 L 201 54 L 186 54 L 186 7 L 240 7 Z M 180 0 L 176 13 L 176.089844 73 L 191 73 L 191 81 L 199 81 L 207 73 L 221 73 L 247 47 L 247 0 "/>
</g>
</svg>
